<mxfile host="app.diagrams.net" agent="Mozilla/5.0 (Windows NT 10.0; Win64; x64) AppleWebKit/537.36 (KHTML, like Gecko) Chrome/132.0.0.0 Safari/537.36 OPR/117.0.0.0" version="26.2.10">
  <diagram id="R2lEEEUBdFMjLlhIrx00" name="Page-1">
    <mxGraphModel dx="2593" dy="1949" grid="1" gridSize="10" guides="1" tooltips="1" connect="1" arrows="1" fold="1" page="1" pageScale="1" pageWidth="850" pageHeight="1100" math="0" shadow="0" extFonts="Permanent Marker^https://fonts.googleapis.com/css?family=Permanent+Marker">
      <root>
        <mxCell id="0" />
        <mxCell id="1" parent="0" />
        <mxCell id="tsXjxQX4fWr17V4q_Agi-11" style="edgeStyle=none;curved=1;rounded=0;hachureGap=4;orthogonalLoop=1;jettySize=auto;html=1;entryX=0;entryY=0.5;entryDx=0;entryDy=0;fontFamily=Architects Daughter;fontSource=https%3A%2F%2Ffonts.googleapis.com%2Fcss%3Ffamily%3DArchitects%2BDaughter;fontSize=12;startSize=8;endSize=8;endArrow=none;startFill=0;" edge="1" parent="1" source="tbTNVgrCfU-SqD0Iauph-7" target="tsXjxQX4fWr17V4q_Agi-10">
          <mxGeometry relative="1" as="geometry" />
        </mxCell>
        <mxCell id="tbTNVgrCfU-SqD0Iauph-7" value="&lt;font face=&quot;Helvetica&quot;&gt;Cliente&lt;/font&gt;" style="rounded=0;whiteSpace=wrap;html=1;hachureGap=4;fontFamily=Architects Daughter;fontSource=https%3A%2F%2Ffonts.googleapis.com%2Fcss%3Ffamily%3DArchitects%2BDaughter;" parent="1" vertex="1">
          <mxGeometry x="300" y="5" width="120" height="60" as="geometry" />
        </mxCell>
        <mxCell id="tsXjxQX4fWr17V4q_Agi-17" style="edgeStyle=none;curved=1;rounded=0;hachureGap=4;orthogonalLoop=1;jettySize=auto;html=1;entryX=1;entryY=0.5;entryDx=0;entryDy=0;fontFamily=Architects Daughter;fontSource=https%3A%2F%2Ffonts.googleapis.com%2Fcss%3Ffamily%3DArchitects%2BDaughter;fontSize=12;startSize=8;endSize=8;endArrow=none;startFill=0;" edge="1" parent="1" source="tbTNVgrCfU-SqD0Iauph-16" target="tsXjxQX4fWr17V4q_Agi-16">
          <mxGeometry relative="1" as="geometry" />
        </mxCell>
        <mxCell id="tbTNVgrCfU-SqD0Iauph-16" value="&lt;font face=&quot;Helvetica&quot;&gt;Supervisor&lt;/font&gt;" style="rounded=0;whiteSpace=wrap;html=1;hachureGap=4;fontFamily=Architects Daughter;fontSource=https%3A%2F%2Ffonts.googleapis.com%2Fcss%3Ffamily%3DArchitects%2BDaughter;" parent="1" vertex="1">
          <mxGeometry x="1100" y="5" width="120" height="60" as="geometry" />
        </mxCell>
        <mxCell id="tbTNVgrCfU-SqD0Iauph-17" value="&lt;font face=&quot;Helvetica&quot;&gt;Vendedor&lt;/font&gt;" style="rounded=0;whiteSpace=wrap;html=1;hachureGap=4;fontFamily=Architects Daughter;fontSource=https%3A%2F%2Ffonts.googleapis.com%2Fcss%3Ffamily%3DArchitects%2BDaughter;" parent="1" vertex="1">
          <mxGeometry x="270" y="610" width="120" height="60" as="geometry" />
        </mxCell>
        <mxCell id="tbTNVgrCfU-SqD0Iauph-29" style="rounded=0;hachureGap=4;orthogonalLoop=1;jettySize=auto;html=1;fontFamily=Architects Daughter;fontSource=https%3A%2F%2Ffonts.googleapis.com%2Fcss%3Ffamily%3DArchitects%2BDaughter;endArrow=none;startFill=0;" parent="1" source="tbTNVgrCfU-SqD0Iauph-19" target="tbTNVgrCfU-SqD0Iauph-7" edge="1">
          <mxGeometry relative="1" as="geometry" />
        </mxCell>
        <mxCell id="tbTNVgrCfU-SqD0Iauph-19" value="&lt;font face=&quot;Helvetica&quot;&gt;contraseÃ±a&lt;/font&gt;" style="ellipse;whiteSpace=wrap;html=1;hachureGap=4;fontFamily=Architects Daughter;fontSource=https%3A%2F%2Ffonts.googleapis.com%2Fcss%3Ffamily%3DArchitects%2BDaughter;" parent="1" vertex="1">
          <mxGeometry x="120" y="60" width="90" height="40" as="geometry" />
        </mxCell>
        <mxCell id="tbTNVgrCfU-SqD0Iauph-30" style="rounded=0;hachureGap=4;orthogonalLoop=1;jettySize=auto;html=1;fontFamily=Architects Daughter;fontSource=https%3A%2F%2Ffonts.googleapis.com%2Fcss%3Ffamily%3DArchitects%2BDaughter;endArrow=none;startFill=0;" parent="1" source="tbTNVgrCfU-SqD0Iauph-20" target="tbTNVgrCfU-SqD0Iauph-7" edge="1">
          <mxGeometry relative="1" as="geometry" />
        </mxCell>
        <mxCell id="tbTNVgrCfU-SqD0Iauph-20" value="&lt;font face=&quot;Helvetica&quot;&gt;email&lt;/font&gt;" style="ellipse;whiteSpace=wrap;html=1;hachureGap=4;fontFamily=Architects Daughter;fontSource=https%3A%2F%2Ffonts.googleapis.com%2Fcss%3Ffamily%3DArchitects%2BDaughter;" parent="1" vertex="1">
          <mxGeometry x="120" y="20" width="50" height="30" as="geometry" />
        </mxCell>
        <mxCell id="tbTNVgrCfU-SqD0Iauph-34" style="rounded=0;hachureGap=4;orthogonalLoop=1;jettySize=auto;html=1;fontFamily=Architects Daughter;fontSource=https%3A%2F%2Ffonts.googleapis.com%2Fcss%3Ffamily%3DArchitects%2BDaughter;endArrow=none;startFill=0;" parent="1" source="tbTNVgrCfU-SqD0Iauph-21" target="tbTNVgrCfU-SqD0Iauph-7" edge="1">
          <mxGeometry relative="1" as="geometry" />
        </mxCell>
        <mxCell id="tbTNVgrCfU-SqD0Iauph-21" value="&lt;font face=&quot;Helvetica&quot;&gt;tipo&lt;/font&gt;" style="ellipse;whiteSpace=wrap;html=1;hachureGap=4;fontFamily=Architects Daughter;fontSource=https%3A%2F%2Ffonts.googleapis.com%2Fcss%3Ffamily%3DArchitects%2BDaughter;" parent="1" vertex="1">
          <mxGeometry x="120" y="-10" width="70" height="20" as="geometry" />
        </mxCell>
        <mxCell id="tbTNVgrCfU-SqD0Iauph-33" style="rounded=0;hachureGap=4;orthogonalLoop=1;jettySize=auto;html=1;fontFamily=Architects Daughter;fontSource=https%3A%2F%2Ffonts.googleapis.com%2Fcss%3Ffamily%3DArchitects%2BDaughter;endArrow=none;startFill=0;" parent="1" source="tbTNVgrCfU-SqD0Iauph-22" target="tbTNVgrCfU-SqD0Iauph-7" edge="1">
          <mxGeometry relative="1" as="geometry" />
        </mxCell>
        <mxCell id="tbTNVgrCfU-SqD0Iauph-22" value="&lt;font face=&quot;Helvetica&quot;&gt;direccion&lt;/font&gt;" style="ellipse;whiteSpace=wrap;html=1;hachureGap=4;fontFamily=Architects Daughter;fontSource=https%3A%2F%2Ffonts.googleapis.com%2Fcss%3Ffamily%3DArchitects%2BDaughter;" parent="1" vertex="1">
          <mxGeometry x="120" y="-60" width="80" height="40" as="geometry" />
        </mxCell>
        <mxCell id="tbTNVgrCfU-SqD0Iauph-28" style="rounded=0;hachureGap=4;orthogonalLoop=1;jettySize=auto;html=1;fontFamily=Architects Daughter;fontSource=https%3A%2F%2Ffonts.googleapis.com%2Fcss%3Ffamily%3DArchitects%2BDaughter;endArrow=none;startFill=0;" parent="1" source="tbTNVgrCfU-SqD0Iauph-23" target="tbTNVgrCfU-SqD0Iauph-7" edge="1">
          <mxGeometry relative="1" as="geometry" />
        </mxCell>
        <mxCell id="tbTNVgrCfU-SqD0Iauph-23" value="&lt;font face=&quot;Helvetica&quot;&gt;nit&lt;/font&gt;" style="ellipse;whiteSpace=wrap;html=1;hachureGap=4;fontFamily=Architects Daughter;fontSource=https%3A%2F%2Ffonts.googleapis.com%2Fcss%3Ffamily%3DArchitects%2BDaughter;" parent="1" vertex="1">
          <mxGeometry x="120" y="-100" width="60" height="30" as="geometry" />
        </mxCell>
        <mxCell id="tbTNVgrCfU-SqD0Iauph-32" style="rounded=0;hachureGap=4;orthogonalLoop=1;jettySize=auto;html=1;fontFamily=Architects Daughter;fontSource=https%3A%2F%2Ffonts.googleapis.com%2Fcss%3Ffamily%3DArchitects%2BDaughter;endArrow=none;startFill=0;" parent="1" source="tbTNVgrCfU-SqD0Iauph-24" target="tbTNVgrCfU-SqD0Iauph-7" edge="1">
          <mxGeometry relative="1" as="geometry" />
        </mxCell>
        <mxCell id="tbTNVgrCfU-SqD0Iauph-24" value="&lt;font face=&quot;Helvetica&quot;&gt;nombre&lt;/font&gt;" style="ellipse;whiteSpace=wrap;html=1;hachureGap=4;fontFamily=Architects Daughter;fontSource=https%3A%2F%2Ffonts.googleapis.com%2Fcss%3Ffamily%3DArchitects%2BDaughter;" parent="1" vertex="1">
          <mxGeometry x="120" y="-150" width="70" height="40" as="geometry" />
        </mxCell>
        <mxCell id="tbTNVgrCfU-SqD0Iauph-31" style="rounded=0;hachureGap=4;orthogonalLoop=1;jettySize=auto;html=1;fontFamily=Architects Daughter;fontSource=https%3A%2F%2Ffonts.googleapis.com%2Fcss%3Ffamily%3DArchitects%2BDaughter;endArrow=none;startFill=0;" parent="1" source="tbTNVgrCfU-SqD0Iauph-25" target="tbTNVgrCfU-SqD0Iauph-7" edge="1">
          <mxGeometry relative="1" as="geometry" />
        </mxCell>
        <mxCell id="tbTNVgrCfU-SqD0Iauph-25" value="&lt;font face=&quot;Helvetica&quot;&gt;idCliente&lt;/font&gt;" style="ellipse;whiteSpace=wrap;html=1;hachureGap=4;fontFamily=Architects Daughter;fontSource=https%3A%2F%2Ffonts.googleapis.com%2Fcss%3Ffamily%3DArchitects%2BDaughter;" parent="1" vertex="1">
          <mxGeometry x="120" y="-200" width="70" height="40" as="geometry" />
        </mxCell>
        <mxCell id="tbTNVgrCfU-SqD0Iauph-35" style="rounded=0;hachureGap=4;orthogonalLoop=1;jettySize=auto;html=1;fontFamily=Architects Daughter;fontSource=https%3A%2F%2Ffonts.googleapis.com%2Fcss%3Ffamily%3DArchitects%2BDaughter;endArrow=none;startFill=0;" parent="1" source="tbTNVgrCfU-SqD0Iauph-27" target="tbTNVgrCfU-SqD0Iauph-7" edge="1">
          <mxGeometry relative="1" as="geometry" />
        </mxCell>
        <mxCell id="tbTNVgrCfU-SqD0Iauph-27" value="&lt;font face=&quot;Helvetica&quot;&gt;telefono&lt;/font&gt;" style="ellipse;whiteSpace=wrap;html=1;hachureGap=4;fontFamily=Architects Daughter;fontSource=https%3A%2F%2Ffonts.googleapis.com%2Fcss%3Ffamily%3DArchitects%2BDaughter;" parent="1" vertex="1">
          <mxGeometry x="120" y="110" width="90" height="40" as="geometry" />
        </mxCell>
        <mxCell id="tbTNVgrCfU-SqD0Iauph-43" style="rounded=0;hachureGap=4;orthogonalLoop=1;jettySize=auto;html=1;fontFamily=Architects Daughter;fontSource=https%3A%2F%2Ffonts.googleapis.com%2Fcss%3Ffamily%3DArchitects%2BDaughter;endArrow=none;startFill=0;" parent="1" source="tbTNVgrCfU-SqD0Iauph-36" target="tbTNVgrCfU-SqD0Iauph-17" edge="1">
          <mxGeometry relative="1" as="geometry" />
        </mxCell>
        <mxCell id="tbTNVgrCfU-SqD0Iauph-36" value="&lt;font face=&quot;Helvetica&quot;&gt;idVendedor&lt;/font&gt;" style="ellipse;whiteSpace=wrap;html=1;hachureGap=4;fontFamily=Architects Daughter;fontSource=https%3A%2F%2Ffonts.googleapis.com%2Fcss%3Ffamily%3DArchitects%2BDaughter;" parent="1" vertex="1">
          <mxGeometry x="90" y="470" width="90" height="40" as="geometry" />
        </mxCell>
        <mxCell id="tbTNVgrCfU-SqD0Iauph-44" style="rounded=0;hachureGap=4;orthogonalLoop=1;jettySize=auto;html=1;fontFamily=Architects Daughter;fontSource=https%3A%2F%2Ffonts.googleapis.com%2Fcss%3Ffamily%3DArchitects%2BDaughter;endArrow=none;startFill=0;" parent="1" source="tbTNVgrCfU-SqD0Iauph-37" target="tbTNVgrCfU-SqD0Iauph-17" edge="1">
          <mxGeometry relative="1" as="geometry" />
        </mxCell>
        <mxCell id="tbTNVgrCfU-SqD0Iauph-37" value="&lt;font face=&quot;Helvetica&quot;&gt;nombre&lt;/font&gt;" style="ellipse;whiteSpace=wrap;html=1;hachureGap=4;fontFamily=Architects Daughter;fontSource=https%3A%2F%2Ffonts.googleapis.com%2Fcss%3Ffamily%3DArchitects%2BDaughter;" parent="1" vertex="1">
          <mxGeometry x="90" y="520" width="90" height="40" as="geometry" />
        </mxCell>
        <mxCell id="tbTNVgrCfU-SqD0Iauph-45" style="rounded=0;hachureGap=4;orthogonalLoop=1;jettySize=auto;html=1;fontFamily=Architects Daughter;fontSource=https%3A%2F%2Ffonts.googleapis.com%2Fcss%3Ffamily%3DArchitects%2BDaughter;endArrow=none;startFill=0;" parent="1" source="tbTNVgrCfU-SqD0Iauph-38" target="tbTNVgrCfU-SqD0Iauph-17" edge="1">
          <mxGeometry relative="1" as="geometry" />
        </mxCell>
        <mxCell id="tbTNVgrCfU-SqD0Iauph-38" value="&lt;font face=&quot;Helvetica&quot;&gt;apellido&lt;/font&gt;" style="ellipse;whiteSpace=wrap;html=1;hachureGap=4;fontFamily=Architects Daughter;fontSource=https%3A%2F%2Ffonts.googleapis.com%2Fcss%3Ffamily%3DArchitects%2BDaughter;" parent="1" vertex="1">
          <mxGeometry x="90" y="570" width="90" height="40" as="geometry" />
        </mxCell>
        <mxCell id="tbTNVgrCfU-SqD0Iauph-46" style="rounded=0;hachureGap=4;orthogonalLoop=1;jettySize=auto;html=1;fontFamily=Architects Daughter;fontSource=https%3A%2F%2Ffonts.googleapis.com%2Fcss%3Ffamily%3DArchitects%2BDaughter;endArrow=none;startFill=0;" parent="1" source="tbTNVgrCfU-SqD0Iauph-39" target="tbTNVgrCfU-SqD0Iauph-17" edge="1">
          <mxGeometry relative="1" as="geometry" />
        </mxCell>
        <mxCell id="tbTNVgrCfU-SqD0Iauph-39" value="&lt;font face=&quot;Helvetica&quot;&gt;email&lt;/font&gt;" style="ellipse;whiteSpace=wrap;html=1;hachureGap=4;fontFamily=Architects Daughter;fontSource=https%3A%2F%2Ffonts.googleapis.com%2Fcss%3Ffamily%3DArchitects%2BDaughter;" parent="1" vertex="1">
          <mxGeometry x="90" y="620" width="90" height="40" as="geometry" />
        </mxCell>
        <mxCell id="tbTNVgrCfU-SqD0Iauph-47" style="rounded=0;hachureGap=4;orthogonalLoop=1;jettySize=auto;html=1;entryX=0;entryY=0.5;entryDx=0;entryDy=0;fontFamily=Architects Daughter;fontSource=https%3A%2F%2Ffonts.googleapis.com%2Fcss%3Ffamily%3DArchitects%2BDaughter;endArrow=none;startFill=0;" parent="1" source="tbTNVgrCfU-SqD0Iauph-40" target="tbTNVgrCfU-SqD0Iauph-17" edge="1">
          <mxGeometry relative="1" as="geometry" />
        </mxCell>
        <mxCell id="tbTNVgrCfU-SqD0Iauph-40" value="&lt;font face=&quot;Helvetica&quot;&gt;fechaNac&lt;/font&gt;" style="ellipse;whiteSpace=wrap;html=1;hachureGap=4;fontFamily=Architects Daughter;fontSource=https%3A%2F%2Ffonts.googleapis.com%2Fcss%3Ffamily%3DArchitects%2BDaughter;" parent="1" vertex="1">
          <mxGeometry x="90" y="670" width="90" height="40" as="geometry" />
        </mxCell>
        <mxCell id="tbTNVgrCfU-SqD0Iauph-41" value="&lt;font face=&quot;Helvetica&quot;&gt;contraseÃ±a&lt;/font&gt;" style="ellipse;whiteSpace=wrap;html=1;hachureGap=4;fontFamily=Architects Daughter;fontSource=https%3A%2F%2Ffonts.googleapis.com%2Fcss%3Ffamily%3DArchitects%2BDaughter;" parent="1" vertex="1">
          <mxGeometry x="90" y="720" width="90" height="40" as="geometry" />
        </mxCell>
        <mxCell id="tbTNVgrCfU-SqD0Iauph-49" style="rounded=0;hachureGap=4;orthogonalLoop=1;jettySize=auto;html=1;entryX=0.25;entryY=1;entryDx=0;entryDy=0;fontFamily=Architects Daughter;fontSource=https%3A%2F%2Ffonts.googleapis.com%2Fcss%3Ffamily%3DArchitects%2BDaughter;endArrow=none;startFill=0;" parent="1" source="tbTNVgrCfU-SqD0Iauph-42" target="tbTNVgrCfU-SqD0Iauph-17" edge="1">
          <mxGeometry relative="1" as="geometry" />
        </mxCell>
        <mxCell id="tbTNVgrCfU-SqD0Iauph-42" value="&lt;font face=&quot;Helvetica&quot;&gt;codVendedor&lt;/font&gt;" style="ellipse;whiteSpace=wrap;html=1;hachureGap=4;fontFamily=Architects Daughter;fontSource=https%3A%2F%2Ffonts.googleapis.com%2Fcss%3Ffamily%3DArchitects%2BDaughter;" parent="1" vertex="1">
          <mxGeometry x="90" y="770" width="90" height="40" as="geometry" />
        </mxCell>
        <mxCell id="tbTNVgrCfU-SqD0Iauph-48" style="rounded=0;hachureGap=4;orthogonalLoop=1;jettySize=auto;html=1;entryX=0.068;entryY=1.008;entryDx=0;entryDy=0;entryPerimeter=0;fontFamily=Architects Daughter;fontSource=https%3A%2F%2Ffonts.googleapis.com%2Fcss%3Ffamily%3DArchitects%2BDaughter;endArrow=none;startFill=0;" parent="1" source="tbTNVgrCfU-SqD0Iauph-41" target="tbTNVgrCfU-SqD0Iauph-17" edge="1">
          <mxGeometry relative="1" as="geometry" />
        </mxCell>
        <mxCell id="tbTNVgrCfU-SqD0Iauph-51" style="rounded=0;hachureGap=4;orthogonalLoop=1;jettySize=auto;html=1;fontFamily=Architects Daughter;fontSource=https%3A%2F%2Ffonts.googleapis.com%2Fcss%3Ffamily%3DArchitects%2BDaughter;endArrow=none;startFill=0;" parent="1" source="tbTNVgrCfU-SqD0Iauph-50" target="tbTNVgrCfU-SqD0Iauph-17" edge="1">
          <mxGeometry relative="1" as="geometry" />
        </mxCell>
        <mxCell id="tbTNVgrCfU-SqD0Iauph-50" value="&lt;font face=&quot;Helvetica&quot;&gt;sexo&lt;/font&gt;" style="ellipse;whiteSpace=wrap;html=1;hachureGap=4;fontFamily=Architects Daughter;fontSource=https%3A%2F%2Ffonts.googleapis.com%2Fcss%3Ffamily%3DArchitects%2BDaughter;" parent="1" vertex="1">
          <mxGeometry x="90" y="820" width="90" height="40" as="geometry" />
        </mxCell>
        <mxCell id="tbTNVgrCfU-SqD0Iauph-58" style="rounded=0;hachureGap=4;orthogonalLoop=1;jettySize=auto;html=1;fontFamily=Architects Daughter;fontSource=https%3A%2F%2Ffonts.googleapis.com%2Fcss%3Ffamily%3DArchitects%2BDaughter;endArrow=none;startFill=0;" parent="1" source="tbTNVgrCfU-SqD0Iauph-52" target="tbTNVgrCfU-SqD0Iauph-16" edge="1">
          <mxGeometry relative="1" as="geometry" />
        </mxCell>
        <mxCell id="tbTNVgrCfU-SqD0Iauph-52" value="&lt;font face=&quot;Helvetica&quot;&gt;idSupervisor&lt;/font&gt;" style="ellipse;whiteSpace=wrap;html=1;hachureGap=4;fontFamily=Architects Daughter;fontSource=https%3A%2F%2Ffonts.googleapis.com%2Fcss%3Ffamily%3DArchitects%2BDaughter;" parent="1" vertex="1">
          <mxGeometry x="1370" y="-275" width="90" height="40" as="geometry" />
        </mxCell>
        <mxCell id="tbTNVgrCfU-SqD0Iauph-60" style="rounded=0;hachureGap=4;orthogonalLoop=1;jettySize=auto;html=1;fontFamily=Architects Daughter;fontSource=https%3A%2F%2Ffonts.googleapis.com%2Fcss%3Ffamily%3DArchitects%2BDaughter;endArrow=none;startFill=0;" parent="1" source="tbTNVgrCfU-SqD0Iauph-53" target="tbTNVgrCfU-SqD0Iauph-16" edge="1">
          <mxGeometry relative="1" as="geometry" />
        </mxCell>
        <mxCell id="tbTNVgrCfU-SqD0Iauph-53" value="&lt;font face=&quot;Helvetica&quot;&gt;nombre&lt;/font&gt;" style="ellipse;whiteSpace=wrap;html=1;hachureGap=4;fontFamily=Architects Daughter;fontSource=https%3A%2F%2Ffonts.googleapis.com%2Fcss%3Ffamily%3DArchitects%2BDaughter;" parent="1" vertex="1">
          <mxGeometry x="1370" y="-225" width="90" height="40" as="geometry" />
        </mxCell>
        <mxCell id="tbTNVgrCfU-SqD0Iauph-61" style="rounded=0;hachureGap=4;orthogonalLoop=1;jettySize=auto;html=1;fontFamily=Architects Daughter;fontSource=https%3A%2F%2Ffonts.googleapis.com%2Fcss%3Ffamily%3DArchitects%2BDaughter;endArrow=none;startFill=0;" parent="1" source="tbTNVgrCfU-SqD0Iauph-54" target="tbTNVgrCfU-SqD0Iauph-16" edge="1">
          <mxGeometry relative="1" as="geometry" />
        </mxCell>
        <mxCell id="tbTNVgrCfU-SqD0Iauph-54" value="&lt;font face=&quot;Helvetica&quot;&gt;apellido&lt;/font&gt;" style="ellipse;whiteSpace=wrap;html=1;hachureGap=4;fontFamily=Architects Daughter;fontSource=https%3A%2F%2Ffonts.googleapis.com%2Fcss%3Ffamily%3DArchitects%2BDaughter;" parent="1" vertex="1">
          <mxGeometry x="1370" y="-175" width="90" height="40" as="geometry" />
        </mxCell>
        <mxCell id="tbTNVgrCfU-SqD0Iauph-64" style="rounded=0;hachureGap=4;orthogonalLoop=1;jettySize=auto;html=1;fontFamily=Architects Daughter;fontSource=https%3A%2F%2Ffonts.googleapis.com%2Fcss%3Ffamily%3DArchitects%2BDaughter;endArrow=none;startFill=0;entryX=0.998;entryY=0.863;entryDx=0;entryDy=0;entryPerimeter=0;" parent="1" source="tbTNVgrCfU-SqD0Iauph-55" target="tbTNVgrCfU-SqD0Iauph-16" edge="1">
          <mxGeometry relative="1" as="geometry" />
        </mxCell>
        <mxCell id="tbTNVgrCfU-SqD0Iauph-55" value="&lt;font face=&quot;Helvetica&quot;&gt;telefono&lt;/font&gt;" style="ellipse;whiteSpace=wrap;html=1;hachureGap=4;fontFamily=Architects Daughter;fontSource=https%3A%2F%2Ffonts.googleapis.com%2Fcss%3Ffamily%3DArchitects%2BDaughter;" parent="1" vertex="1">
          <mxGeometry x="1370" y="35" width="90" height="40" as="geometry" />
        </mxCell>
        <mxCell id="tbTNVgrCfU-SqD0Iauph-62" style="rounded=0;hachureGap=4;orthogonalLoop=1;jettySize=auto;html=1;fontFamily=Architects Daughter;fontSource=https%3A%2F%2Ffonts.googleapis.com%2Fcss%3Ffamily%3DArchitects%2BDaughter;endArrow=none;startFill=0;" parent="1" source="tbTNVgrCfU-SqD0Iauph-56" target="tbTNVgrCfU-SqD0Iauph-16" edge="1">
          <mxGeometry relative="1" as="geometry" />
        </mxCell>
        <mxCell id="tbTNVgrCfU-SqD0Iauph-56" value="&lt;font face=&quot;Helvetica&quot;&gt;sexo&lt;/font&gt;" style="ellipse;whiteSpace=wrap;html=1;hachureGap=4;fontFamily=Architects Daughter;fontSource=https%3A%2F%2Ffonts.googleapis.com%2Fcss%3Ffamily%3DArchitects%2BDaughter;" parent="1" vertex="1">
          <mxGeometry x="1370" y="-125" width="90" height="40" as="geometry" />
        </mxCell>
        <mxCell id="tbTNVgrCfU-SqD0Iauph-57" value="&lt;font face=&quot;Helvetica&quot;&gt;fechaNac&lt;/font&gt;" style="ellipse;whiteSpace=wrap;html=1;hachureGap=4;fontFamily=Architects Daughter;fontSource=https%3A%2F%2Ffonts.googleapis.com%2Fcss%3Ffamily%3DArchitects%2BDaughter;" parent="1" vertex="1">
          <mxGeometry x="1370" y="-15" width="90" height="40" as="geometry" />
        </mxCell>
        <mxCell id="tbTNVgrCfU-SqD0Iauph-65" style="rounded=0;hachureGap=4;orthogonalLoop=1;jettySize=auto;html=1;fontFamily=Architects Daughter;fontSource=https%3A%2F%2Ffonts.googleapis.com%2Fcss%3Ffamily%3DArchitects%2BDaughter;endArrow=none;startFill=0;entryX=1;entryY=0.75;entryDx=0;entryDy=0;" parent="1" source="tbTNVgrCfU-SqD0Iauph-57" target="tbTNVgrCfU-SqD0Iauph-16" edge="1">
          <mxGeometry relative="1" as="geometry">
            <mxPoint x="1120" y="140" as="targetPoint" />
          </mxGeometry>
        </mxCell>
        <mxCell id="tbTNVgrCfU-SqD0Iauph-66" value="&lt;font face=&quot;Helvetica&quot;&gt;email&lt;/font&gt;" style="ellipse;whiteSpace=wrap;html=1;hachureGap=4;fontFamily=Architects Daughter;fontSource=https%3A%2F%2Ffonts.googleapis.com%2Fcss%3Ffamily%3DArchitects%2BDaughter;" parent="1" vertex="1">
          <mxGeometry x="1370" y="-65" width="90" height="40" as="geometry" />
        </mxCell>
        <mxCell id="tbTNVgrCfU-SqD0Iauph-67" value="&lt;font face=&quot;Helvetica&quot;&gt;contraseÃ±a&lt;/font&gt;" style="ellipse;whiteSpace=wrap;html=1;hachureGap=4;fontFamily=Architects Daughter;fontSource=https%3A%2F%2Ffonts.googleapis.com%2Fcss%3Ffamily%3DArchitects%2BDaughter;" parent="1" vertex="1">
          <mxGeometry x="1370" y="85" width="90" height="40" as="geometry" />
        </mxCell>
        <mxCell id="tbTNVgrCfU-SqD0Iauph-68" value="&lt;font face=&quot;Helvetica&quot;&gt;codSup&lt;/font&gt;" style="ellipse;whiteSpace=wrap;html=1;hachureGap=4;fontFamily=Architects Daughter;fontSource=https%3A%2F%2Ffonts.googleapis.com%2Fcss%3Ffamily%3DArchitects%2BDaughter;" parent="1" vertex="1">
          <mxGeometry x="1370" y="145" width="90" height="40" as="geometry" />
        </mxCell>
        <mxCell id="tbTNVgrCfU-SqD0Iauph-69" style="rounded=0;hachureGap=4;orthogonalLoop=1;jettySize=auto;html=1;entryX=1;entryY=1;entryDx=0;entryDy=0;fontFamily=Architects Daughter;fontSource=https%3A%2F%2Ffonts.googleapis.com%2Fcss%3Ffamily%3DArchitects%2BDaughter;endArrow=none;startFill=0;" parent="1" source="tbTNVgrCfU-SqD0Iauph-67" target="tbTNVgrCfU-SqD0Iauph-16" edge="1">
          <mxGeometry relative="1" as="geometry" />
        </mxCell>
        <mxCell id="tbTNVgrCfU-SqD0Iauph-70" style="rounded=0;hachureGap=4;orthogonalLoop=1;jettySize=auto;html=1;entryX=0.667;entryY=1;entryDx=0;entryDy=0;entryPerimeter=0;fontFamily=Architects Daughter;fontSource=https%3A%2F%2Ffonts.googleapis.com%2Fcss%3Ffamily%3DArchitects%2BDaughter;endArrow=none;startFill=0;" parent="1" source="tbTNVgrCfU-SqD0Iauph-68" target="tbTNVgrCfU-SqD0Iauph-16" edge="1">
          <mxGeometry relative="1" as="geometry" />
        </mxCell>
        <mxCell id="tbTNVgrCfU-SqD0Iauph-72" style="rounded=0;hachureGap=4;orthogonalLoop=1;jettySize=auto;html=1;fontFamily=Architects Daughter;fontSource=https%3A%2F%2Ffonts.googleapis.com%2Fcss%3Ffamily%3DArchitects%2BDaughter;endArrow=none;startFill=0;" parent="1" source="tbTNVgrCfU-SqD0Iauph-71" target="tbTNVgrCfU-SqD0Iauph-7" edge="1">
          <mxGeometry relative="1" as="geometry" />
        </mxCell>
        <mxCell id="tbTNVgrCfU-SqD0Iauph-71" value="&lt;font face=&quot;Helvetica&quot;&gt;codCli&lt;/font&gt;" style="ellipse;whiteSpace=wrap;html=1;hachureGap=4;fontFamily=Architects Daughter;fontSource=https%3A%2F%2Ffonts.googleapis.com%2Fcss%3Ffamily%3DArchitects%2BDaughter;" parent="1" vertex="1">
          <mxGeometry x="120" y="170" width="90" height="40" as="geometry" />
        </mxCell>
        <mxCell id="tbTNVgrCfU-SqD0Iauph-73" value="&lt;font face=&quot;Helvetica&quot;&gt;Producto&lt;/font&gt;" style="rounded=0;whiteSpace=wrap;html=1;hachureGap=4;fontFamily=Architects Daughter;fontSource=https%3A%2F%2Ffonts.googleapis.com%2Fcss%3Ffamily%3DArchitects%2BDaughter;" parent="1" vertex="1">
          <mxGeometry x="970" y="280" width="120" height="60" as="geometry" />
        </mxCell>
        <mxCell id="tbTNVgrCfU-SqD0Iauph-74" style="rounded=0;hachureGap=4;orthogonalLoop=1;jettySize=auto;html=1;fontFamily=Architects Daughter;fontSource=https%3A%2F%2Ffonts.googleapis.com%2Fcss%3Ffamily%3DArchitects%2BDaughter;endArrow=none;startFill=0;" parent="1" source="tbTNVgrCfU-SqD0Iauph-75" target="tbTNVgrCfU-SqD0Iauph-73" edge="1">
          <mxGeometry relative="1" as="geometry" />
        </mxCell>
        <mxCell id="tbTNVgrCfU-SqD0Iauph-75" value="&lt;font face=&quot;Helvetica&quot;&gt;idProducto&amp;nbsp;&lt;/font&gt;" style="ellipse;whiteSpace=wrap;html=1;hachureGap=4;fontFamily=Architects Daughter;fontSource=https%3A%2F%2Ffonts.googleapis.com%2Fcss%3Ffamily%3DArchitects%2BDaughter;" parent="1" vertex="1">
          <mxGeometry x="1210" y="170" width="90" height="40" as="geometry" />
        </mxCell>
        <mxCell id="tbTNVgrCfU-SqD0Iauph-76" style="rounded=0;hachureGap=4;orthogonalLoop=1;jettySize=auto;html=1;fontFamily=Architects Daughter;fontSource=https%3A%2F%2Ffonts.googleapis.com%2Fcss%3Ffamily%3DArchitects%2BDaughter;endArrow=none;startFill=0;" parent="1" source="tbTNVgrCfU-SqD0Iauph-77" target="tbTNVgrCfU-SqD0Iauph-73" edge="1">
          <mxGeometry relative="1" as="geometry" />
        </mxCell>
        <mxCell id="tbTNVgrCfU-SqD0Iauph-77" value="&lt;font face=&quot;Helvetica&quot;&gt;nombre&lt;/font&gt;" style="ellipse;whiteSpace=wrap;html=1;hachureGap=4;fontFamily=Architects Daughter;fontSource=https%3A%2F%2Ffonts.googleapis.com%2Fcss%3Ffamily%3DArchitects%2BDaughter;" parent="1" vertex="1">
          <mxGeometry x="1210" y="220" width="90" height="40" as="geometry" />
        </mxCell>
        <mxCell id="tbTNVgrCfU-SqD0Iauph-78" style="rounded=0;hachureGap=4;orthogonalLoop=1;jettySize=auto;html=1;fontFamily=Architects Daughter;fontSource=https%3A%2F%2Ffonts.googleapis.com%2Fcss%3Ffamily%3DArchitects%2BDaughter;endArrow=none;startFill=0;" parent="1" source="tbTNVgrCfU-SqD0Iauph-79" target="tbTNVgrCfU-SqD0Iauph-73" edge="1">
          <mxGeometry relative="1" as="geometry" />
        </mxCell>
        <mxCell id="tbTNVgrCfU-SqD0Iauph-79" value="&lt;font face=&quot;Helvetica&quot;&gt;tipo&lt;/font&gt;" style="ellipse;whiteSpace=wrap;html=1;hachureGap=4;fontFamily=Architects Daughter;fontSource=https%3A%2F%2Ffonts.googleapis.com%2Fcss%3Ffamily%3DArchitects%2BDaughter;" parent="1" vertex="1">
          <mxGeometry x="1210" y="270" width="90" height="40" as="geometry" />
        </mxCell>
        <mxCell id="tbTNVgrCfU-SqD0Iauph-82" style="rounded=0;hachureGap=4;orthogonalLoop=1;jettySize=auto;html=1;fontFamily=Architects Daughter;fontSource=https%3A%2F%2Ffonts.googleapis.com%2Fcss%3Ffamily%3DArchitects%2BDaughter;endArrow=none;startFill=0;" parent="1" source="tbTNVgrCfU-SqD0Iauph-83" target="tbTNVgrCfU-SqD0Iauph-73" edge="1">
          <mxGeometry relative="1" as="geometry" />
        </mxCell>
        <mxCell id="tbTNVgrCfU-SqD0Iauph-83" value="&lt;font face=&quot;Helvetica&quot;&gt;presentacion&lt;/font&gt;" style="ellipse;whiteSpace=wrap;html=1;hachureGap=4;fontFamily=Architects Daughter;fontSource=https%3A%2F%2Ffonts.googleapis.com%2Fcss%3Ffamily%3DArchitects%2BDaughter;" parent="1" vertex="1">
          <mxGeometry x="1210" y="320" width="90" height="40" as="geometry" />
        </mxCell>
        <mxCell id="tbTNVgrCfU-SqD0Iauph-84" value="&lt;font face=&quot;Helvetica&quot;&gt;stock&lt;/font&gt;" style="ellipse;whiteSpace=wrap;html=1;hachureGap=4;fontFamily=Architects Daughter;fontSource=https%3A%2F%2Ffonts.googleapis.com%2Fcss%3Ffamily%3DArchitects%2BDaughter;" parent="1" vertex="1">
          <mxGeometry x="1210" y="430" width="90" height="40" as="geometry" />
        </mxCell>
        <mxCell id="tbTNVgrCfU-SqD0Iauph-85" style="rounded=0;hachureGap=4;orthogonalLoop=1;jettySize=auto;html=1;fontFamily=Architects Daughter;fontSource=https%3A%2F%2Ffonts.googleapis.com%2Fcss%3Ffamily%3DArchitects%2BDaughter;endArrow=none;startFill=0;entryX=1;entryY=1;entryDx=0;entryDy=0;" parent="1" source="tbTNVgrCfU-SqD0Iauph-84" target="tbTNVgrCfU-SqD0Iauph-73" edge="1">
          <mxGeometry relative="1" as="geometry">
            <mxPoint x="1060" y="360" as="targetPoint" />
          </mxGeometry>
        </mxCell>
        <mxCell id="tbTNVgrCfU-SqD0Iauph-86" value="&lt;font face=&quot;Helvetica&quot;&gt;precio&lt;/font&gt;" style="ellipse;whiteSpace=wrap;html=1;hachureGap=4;fontFamily=Architects Daughter;fontSource=https%3A%2F%2Ffonts.googleapis.com%2Fcss%3Ffamily%3DArchitects%2BDaughter;" parent="1" vertex="1">
          <mxGeometry x="1210" y="380" width="90" height="40" as="geometry" />
        </mxCell>
        <mxCell id="tsXjxQX4fWr17V4q_Agi-12" style="edgeStyle=none;curved=1;rounded=0;hachureGap=4;orthogonalLoop=1;jettySize=auto;html=1;entryX=1;entryY=0.5;entryDx=0;entryDy=0;fontFamily=Architects Daughter;fontSource=https%3A%2F%2Ffonts.googleapis.com%2Fcss%3Ffamily%3DArchitects%2BDaughter;fontSize=12;startSize=8;endSize=8;endArrow=none;startFill=0;" edge="1" parent="1" source="tbTNVgrCfU-SqD0Iauph-91" target="tsXjxQX4fWr17V4q_Agi-10">
          <mxGeometry relative="1" as="geometry" />
        </mxCell>
        <mxCell id="tsXjxQX4fWr17V4q_Agi-18" style="edgeStyle=none;curved=1;rounded=0;hachureGap=4;orthogonalLoop=1;jettySize=auto;html=1;entryX=0;entryY=0.5;entryDx=0;entryDy=0;fontFamily=Architects Daughter;fontSource=https%3A%2F%2Ffonts.googleapis.com%2Fcss%3Ffamily%3DArchitects%2BDaughter;fontSize=12;startSize=8;endSize=8;endArrow=none;startFill=0;" edge="1" parent="1" source="tbTNVgrCfU-SqD0Iauph-91" target="tsXjxQX4fWr17V4q_Agi-16">
          <mxGeometry relative="1" as="geometry" />
        </mxCell>
        <mxCell id="tsXjxQX4fWr17V4q_Agi-23" style="edgeStyle=none;curved=1;rounded=0;hachureGap=4;orthogonalLoop=1;jettySize=auto;html=1;entryX=0.5;entryY=0;entryDx=0;entryDy=0;fontFamily=Architects Daughter;fontSource=https%3A%2F%2Ffonts.googleapis.com%2Fcss%3Ffamily%3DArchitects%2BDaughter;fontSize=12;startSize=8;endSize=8;endArrow=none;startFill=0;" edge="1" parent="1" source="tbTNVgrCfU-SqD0Iauph-91" target="tsXjxQX4fWr17V4q_Agi-22">
          <mxGeometry relative="1" as="geometry" />
        </mxCell>
        <mxCell id="tbTNVgrCfU-SqD0Iauph-91" value="&lt;font face=&quot;Helvetica&quot;&gt;Pedido&lt;/font&gt;" style="rounded=0;whiteSpace=wrap;html=1;hachureGap=4;fontFamily=Architects Daughter;fontSource=https%3A%2F%2Ffonts.googleapis.com%2Fcss%3Ffamily%3DArchitects%2BDaughter;" parent="1" vertex="1">
          <mxGeometry x="680" y="3.66" width="120" height="60" as="geometry" />
        </mxCell>
        <mxCell id="tbTNVgrCfU-SqD0Iauph-92" style="rounded=0;hachureGap=4;orthogonalLoop=1;jettySize=auto;html=1;fontFamily=Architects Daughter;fontSource=https%3A%2F%2Ffonts.googleapis.com%2Fcss%3Ffamily%3DArchitects%2BDaughter;endArrow=none;startFill=0;" parent="1" source="tbTNVgrCfU-SqD0Iauph-93" target="tbTNVgrCfU-SqD0Iauph-91" edge="1">
          <mxGeometry relative="1" as="geometry" />
        </mxCell>
        <mxCell id="tbTNVgrCfU-SqD0Iauph-93" value="&lt;font face=&quot;Helvetica&quot;&gt;idPedido&lt;/font&gt;" style="ellipse;whiteSpace=wrap;html=1;hachureGap=4;fontFamily=Architects Daughter;fontSource=https%3A%2F%2Ffonts.googleapis.com%2Fcss%3Ffamily%3DArchitects%2BDaughter;" parent="1" vertex="1">
          <mxGeometry x="575" y="-105.00000000000003" width="90" height="40" as="geometry" />
        </mxCell>
        <mxCell id="tbTNVgrCfU-SqD0Iauph-96" style="rounded=0;hachureGap=4;orthogonalLoop=1;jettySize=auto;html=1;fontFamily=Architects Daughter;fontSource=https%3A%2F%2Ffonts.googleapis.com%2Fcss%3Ffamily%3DArchitects%2BDaughter;endArrow=none;startFill=0;" parent="1" source="tbTNVgrCfU-SqD0Iauph-97" target="tbTNVgrCfU-SqD0Iauph-91" edge="1">
          <mxGeometry relative="1" as="geometry" />
        </mxCell>
        <mxCell id="tbTNVgrCfU-SqD0Iauph-97" value="&lt;font face=&quot;Helvetica&quot;&gt;fechaRegistro&lt;/font&gt;" style="ellipse;whiteSpace=wrap;html=1;hachureGap=4;fontFamily=Architects Daughter;fontSource=https%3A%2F%2Ffonts.googleapis.com%2Fcss%3Ffamily%3DArchitects%2BDaughter;" parent="1" vertex="1">
          <mxGeometry x="650" y="-170.00000000000003" width="90" height="40" as="geometry" />
        </mxCell>
        <mxCell id="tbTNVgrCfU-SqD0Iauph-100" style="rounded=0;hachureGap=4;orthogonalLoop=1;jettySize=auto;html=1;fontFamily=Architects Daughter;fontSource=https%3A%2F%2Ffonts.googleapis.com%2Fcss%3Ffamily%3DArchitects%2BDaughter;endArrow=none;startFill=0;" parent="1" source="tbTNVgrCfU-SqD0Iauph-101" target="tbTNVgrCfU-SqD0Iauph-91" edge="1">
          <mxGeometry relative="1" as="geometry" />
        </mxCell>
        <mxCell id="tbTNVgrCfU-SqD0Iauph-101" value="&lt;font face=&quot;Helvetica&quot;&gt;estado&lt;/font&gt;" style="ellipse;whiteSpace=wrap;html=1;hachureGap=4;fontFamily=Architects Daughter;fontSource=https%3A%2F%2Ffonts.googleapis.com%2Fcss%3Ffamily%3DArchitects%2BDaughter;" parent="1" vertex="1">
          <mxGeometry x="750" y="-160" width="90" height="40" as="geometry" />
        </mxCell>
        <mxCell id="tbTNVgrCfU-SqD0Iauph-109" style="rounded=0;hachureGap=4;orthogonalLoop=1;jettySize=auto;html=1;fontFamily=Architects Daughter;fontSource=https%3A%2F%2Ffonts.googleapis.com%2Fcss%3Ffamily%3DArchitects%2BDaughter;endArrow=none;startFill=0;" parent="1" source="tbTNVgrCfU-SqD0Iauph-104" target="tbTNVgrCfU-SqD0Iauph-91" edge="1">
          <mxGeometry relative="1" as="geometry">
            <mxPoint x="922.1363008034514" y="109.99756325536751" as="sourcePoint" />
          </mxGeometry>
        </mxCell>
        <mxCell id="tbTNVgrCfU-SqD0Iauph-104" value="&lt;font face=&quot;Helvetica&quot;&gt;total&lt;/font&gt;" style="ellipse;whiteSpace=wrap;html=1;hachureGap=4;fontFamily=Architects Daughter;fontSource=https%3A%2F%2Ffonts.googleapis.com%2Fcss%3Ffamily%3DArchitects%2BDaughter;" parent="1" vertex="1">
          <mxGeometry x="850" y="-110.00000000000001" width="90" height="40" as="geometry" />
        </mxCell>
        <mxCell id="tsXjxQX4fWr17V4q_Agi-24" style="edgeStyle=none;curved=1;rounded=0;hachureGap=4;orthogonalLoop=1;jettySize=auto;html=1;entryX=0.5;entryY=1;entryDx=0;entryDy=0;fontFamily=Architects Daughter;fontSource=https%3A%2F%2Ffonts.googleapis.com%2Fcss%3Ffamily%3DArchitects%2BDaughter;fontSize=12;startSize=8;endSize=8;endArrow=none;startFill=0;" edge="1" parent="1" source="tsXjxQX4fWr17V4q_Agi-1" target="tsXjxQX4fWr17V4q_Agi-22">
          <mxGeometry relative="1" as="geometry" />
        </mxCell>
        <mxCell id="tsXjxQX4fWr17V4q_Agi-1" value="&lt;font face=&quot;Helvetica&quot;&gt;DetallePedido&lt;/font&gt;" style="rounded=0;whiteSpace=wrap;html=1;hachureGap=4;fontFamily=Architects Daughter;fontSource=https%3A%2F%2Ffonts.googleapis.com%2Fcss%3Ffamily%3DArchitects%2BDaughter;" vertex="1" parent="1">
          <mxGeometry x="680" y="280" width="120" height="60" as="geometry" />
        </mxCell>
        <mxCell id="tsXjxQX4fWr17V4q_Agi-2" style="rounded=0;hachureGap=4;orthogonalLoop=1;jettySize=auto;html=1;fontFamily=Architects Daughter;fontSource=https%3A%2F%2Ffonts.googleapis.com%2Fcss%3Ffamily%3DArchitects%2BDaughter;endArrow=none;startFill=0;" edge="1" parent="1" source="tsXjxQX4fWr17V4q_Agi-3" target="tsXjxQX4fWr17V4q_Agi-1">
          <mxGeometry relative="1" as="geometry" />
        </mxCell>
        <mxCell id="tsXjxQX4fWr17V4q_Agi-3" value="&lt;font face=&quot;Helvetica&quot;&gt;idDetalle&lt;/font&gt;" style="ellipse;whiteSpace=wrap;html=1;hachureGap=4;fontFamily=Architects Daughter;fontSource=https%3A%2F%2Ffonts.googleapis.com%2Fcss%3Ffamily%3DArchitects%2BDaughter;" vertex="1" parent="1">
          <mxGeometry x="530" y="160" width="90" height="40" as="geometry" />
        </mxCell>
        <mxCell id="tsXjxQX4fWr17V4q_Agi-4" style="rounded=0;hachureGap=4;orthogonalLoop=1;jettySize=auto;html=1;fontFamily=Architects Daughter;fontSource=https%3A%2F%2Ffonts.googleapis.com%2Fcss%3Ffamily%3DArchitects%2BDaughter;endArrow=none;startFill=0;" edge="1" parent="1" source="tsXjxQX4fWr17V4q_Agi-5" target="tsXjxQX4fWr17V4q_Agi-1">
          <mxGeometry relative="1" as="geometry" />
        </mxCell>
        <mxCell id="tsXjxQX4fWr17V4q_Agi-5" value="&lt;font face=&quot;Helvetica&quot;&gt;cantidad&lt;/font&gt;" style="ellipse;whiteSpace=wrap;html=1;hachureGap=4;fontFamily=Architects Daughter;fontSource=https%3A%2F%2Ffonts.googleapis.com%2Fcss%3Ffamily%3DArchitects%2BDaughter;" vertex="1" parent="1">
          <mxGeometry x="530" y="230" width="90" height="40" as="geometry" />
        </mxCell>
        <mxCell id="tsXjxQX4fWr17V4q_Agi-6" style="rounded=0;hachureGap=4;orthogonalLoop=1;jettySize=auto;html=1;fontFamily=Architects Daughter;fontSource=https%3A%2F%2Ffonts.googleapis.com%2Fcss%3Ffamily%3DArchitects%2BDaughter;endArrow=none;startFill=0;" edge="1" parent="1" source="tsXjxQX4fWr17V4q_Agi-7" target="tsXjxQX4fWr17V4q_Agi-1">
          <mxGeometry relative="1" as="geometry" />
        </mxCell>
        <mxCell id="tsXjxQX4fWr17V4q_Agi-7" value="&lt;font face=&quot;Helvetica&quot;&gt;PrecioU&lt;/font&gt;" style="ellipse;whiteSpace=wrap;html=1;hachureGap=4;fontFamily=Architects Daughter;fontSource=https%3A%2F%2Ffonts.googleapis.com%2Fcss%3Ffamily%3DArchitects%2BDaughter;" vertex="1" parent="1">
          <mxGeometry x="530" y="290" width="90" height="40" as="geometry" />
        </mxCell>
        <mxCell id="tsXjxQX4fWr17V4q_Agi-8" style="rounded=0;hachureGap=4;orthogonalLoop=1;jettySize=auto;html=1;fontFamily=Architects Daughter;fontSource=https%3A%2F%2Ffonts.googleapis.com%2Fcss%3Ffamily%3DArchitects%2BDaughter;endArrow=none;startFill=0;" edge="1" parent="1" source="tsXjxQX4fWr17V4q_Agi-9" target="tsXjxQX4fWr17V4q_Agi-1">
          <mxGeometry relative="1" as="geometry" />
        </mxCell>
        <mxCell id="tsXjxQX4fWr17V4q_Agi-9" value="&lt;font face=&quot;Helvetica&quot;&gt;subtotal&lt;/font&gt;" style="ellipse;whiteSpace=wrap;html=1;hachureGap=4;fontFamily=Architects Daughter;fontSource=https%3A%2F%2Ffonts.googleapis.com%2Fcss%3Ffamily%3DArchitects%2BDaughter;" vertex="1" parent="1">
          <mxGeometry x="540" y="350" width="90" height="40" as="geometry" />
        </mxCell>
        <mxCell id="tsXjxQX4fWr17V4q_Agi-10" value="&lt;font face=&quot;Helvetica&quot;&gt;realiza&lt;/font&gt;" style="rhombus;whiteSpace=wrap;html=1;hachureGap=4;fontFamily=Architects Daughter;fontSource=https%3A%2F%2Ffonts.googleapis.com%2Fcss%3Ffamily%3DArchitects%2BDaughter;" vertex="1" parent="1">
          <mxGeometry x="510" y="-6.34" width="80" height="80" as="geometry" />
        </mxCell>
        <mxCell id="tsXjxQX4fWr17V4q_Agi-13" value="&lt;font face=&quot;Helvetica&quot;&gt;1:1&lt;/font&gt;" style="text;html=1;align=center;verticalAlign=middle;resizable=0;points=[];autosize=1;strokeColor=none;fillColor=none;fontSize=16;fontFamily=Architects Daughter;fontSource=https%3A%2F%2Ffonts.googleapis.com%2Fcss%3Ffamily%3DArchitects%2BDaughter;" vertex="1" parent="1">
          <mxGeometry x="420" y="5" width="50" height="30" as="geometry" />
        </mxCell>
        <mxCell id="tsXjxQX4fWr17V4q_Agi-14" value="&lt;font face=&quot;Helvetica&quot;&gt;1:N&lt;/font&gt;" style="text;html=1;align=center;verticalAlign=middle;resizable=0;points=[];autosize=1;strokeColor=none;fillColor=none;fontSize=16;fontFamily=Architects Daughter;fontSource=https%3A%2F%2Ffonts.googleapis.com%2Fcss%3Ffamily%3DArchitects%2BDaughter;" vertex="1" parent="1">
          <mxGeometry x="630" y="3.66" width="50" height="30" as="geometry" />
        </mxCell>
        <mxCell id="tsXjxQX4fWr17V4q_Agi-15" value="&lt;font face=&quot;Helvetica&quot;&gt;1:N&lt;/font&gt;" style="text;html=1;align=center;verticalAlign=middle;resizable=0;points=[];autosize=1;strokeColor=none;fillColor=none;fontSize=16;fontFamily=Architects Daughter;fontSource=https%3A%2F%2Ffonts.googleapis.com%2Fcss%3Ffamily%3DArchitects%2BDaughter;" vertex="1" parent="1">
          <mxGeometry x="525" y="-36.34" width="50" height="30" as="geometry" />
        </mxCell>
        <mxCell id="tsXjxQX4fWr17V4q_Agi-16" value="&lt;font face=&quot;Helvetica&quot;&gt;atiende&lt;/font&gt;" style="rhombus;whiteSpace=wrap;html=1;hachureGap=4;fontFamily=Architects Daughter;fontSource=https%3A%2F%2Ffonts.googleapis.com%2Fcss%3Ffamily%3DArchitects%2BDaughter;" vertex="1" parent="1">
          <mxGeometry x="920" y="-6.34" width="80" height="80" as="geometry" />
        </mxCell>
        <mxCell id="tsXjxQX4fWr17V4q_Agi-19" value="&lt;font face=&quot;Helvetica&quot;&gt;1:N&lt;/font&gt;" style="text;html=1;align=center;verticalAlign=middle;resizable=0;points=[];autosize=1;strokeColor=none;fillColor=none;fontSize=16;fontFamily=Architects Daughter;fontSource=https%3A%2F%2Ffonts.googleapis.com%2Fcss%3Ffamily%3DArchitects%2BDaughter;" vertex="1" parent="1">
          <mxGeometry x="800" width="50" height="30" as="geometry" />
        </mxCell>
        <mxCell id="tsXjxQX4fWr17V4q_Agi-20" value="&lt;font face=&quot;Helvetica&quot;&gt;1:N&lt;/font&gt;" style="text;html=1;align=center;verticalAlign=middle;resizable=0;points=[];autosize=1;strokeColor=none;fillColor=none;fontSize=16;fontFamily=Architects Daughter;fontSource=https%3A%2F%2Ffonts.googleapis.com%2Fcss%3Ffamily%3DArchitects%2BDaughter;" vertex="1" parent="1">
          <mxGeometry x="935" y="-36.34" width="50" height="30" as="geometry" />
        </mxCell>
        <mxCell id="tsXjxQX4fWr17V4q_Agi-21" value="&lt;font face=&quot;Helvetica&quot;&gt;1:N&lt;/font&gt;" style="text;html=1;align=center;verticalAlign=middle;resizable=0;points=[];autosize=1;strokeColor=none;fillColor=none;fontSize=16;fontFamily=Architects Daughter;fontSource=https%3A%2F%2Ffonts.googleapis.com%2Fcss%3Ffamily%3DArchitects%2BDaughter;" vertex="1" parent="1">
          <mxGeometry x="1050" y="5" width="50" height="30" as="geometry" />
        </mxCell>
        <mxCell id="tsXjxQX4fWr17V4q_Agi-22" value="&lt;font face=&quot;Helvetica&quot;&gt;tiene&lt;/font&gt;" style="rhombus;whiteSpace=wrap;html=1;sketch=1;hachureGap=4;jiggle=2;curveFitting=1;fontFamily=Architects Daughter;fontSource=https%3A%2F%2Ffonts.googleapis.com%2Fcss%3Ffamily%3DArchitects%2BDaughter;" vertex="1" parent="1">
          <mxGeometry x="700" y="130" width="80" height="80" as="geometry" />
        </mxCell>
        <mxCell id="tsXjxQX4fWr17V4q_Agi-25" value="&lt;font face=&quot;Helvetica&quot;&gt;1:N&lt;/font&gt;" style="text;html=1;align=center;verticalAlign=middle;resizable=0;points=[];autosize=1;strokeColor=none;fillColor=none;fontSize=16;fontFamily=Architects Daughter;fontSource=https%3A%2F%2Ffonts.googleapis.com%2Fcss%3Ffamily%3DArchitects%2BDaughter;" vertex="1" parent="1">
          <mxGeometry x="690" y="65" width="50" height="30" as="geometry" />
        </mxCell>
        <mxCell id="tsXjxQX4fWr17V4q_Agi-26" value="&lt;font face=&quot;Helvetica&quot;&gt;1:1&lt;/font&gt;" style="text;html=1;align=center;verticalAlign=middle;resizable=0;points=[];autosize=1;strokeColor=none;fillColor=none;fontSize=16;fontFamily=Architects Daughter;fontSource=https%3A%2F%2Ffonts.googleapis.com%2Fcss%3Ffamily%3DArchitects%2BDaughter;" vertex="1" parent="1">
          <mxGeometry x="740" y="250" width="50" height="30" as="geometry" />
        </mxCell>
        <mxCell id="tsXjxQX4fWr17V4q_Agi-27" value="&lt;font face=&quot;Helvetica&quot;&gt;tiene&lt;/font&gt;" style="rhombus;whiteSpace=wrap;html=1;hachureGap=4;fontFamily=Architects Daughter;fontSource=https%3A%2F%2Ffonts.googleapis.com%2Fcss%3Ffamily%3DArchitects%2BDaughter;" vertex="1" parent="1">
          <mxGeometry x="840" y="270" width="80" height="80" as="geometry" />
        </mxCell>
        <mxCell id="tsXjxQX4fWr17V4q_Agi-28" style="edgeStyle=none;curved=1;rounded=0;hachureGap=4;orthogonalLoop=1;jettySize=auto;html=1;entryX=0.018;entryY=0.547;entryDx=0;entryDy=0;entryPerimeter=0;fontFamily=Architects Daughter;fontSource=https%3A%2F%2Ffonts.googleapis.com%2Fcss%3Ffamily%3DArchitects%2BDaughter;fontSize=12;startSize=8;endSize=8;endArrow=none;startFill=0;" edge="1" parent="1" source="tsXjxQX4fWr17V4q_Agi-1" target="tsXjxQX4fWr17V4q_Agi-27">
          <mxGeometry relative="1" as="geometry" />
        </mxCell>
        <mxCell id="tsXjxQX4fWr17V4q_Agi-29" style="edgeStyle=none;curved=1;rounded=0;hachureGap=4;orthogonalLoop=1;jettySize=auto;html=1;entryX=0.951;entryY=0.518;entryDx=0;entryDy=0;entryPerimeter=0;fontFamily=Architects Daughter;fontSource=https%3A%2F%2Ffonts.googleapis.com%2Fcss%3Ffamily%3DArchitects%2BDaughter;fontSize=12;startSize=8;endSize=8;endArrow=none;startFill=0;" edge="1" parent="1" source="tbTNVgrCfU-SqD0Iauph-73" target="tsXjxQX4fWr17V4q_Agi-27">
          <mxGeometry relative="1" as="geometry" />
        </mxCell>
        <mxCell id="tsXjxQX4fWr17V4q_Agi-30" value="&lt;font face=&quot;Helvetica&quot;&gt;1:1&lt;/font&gt;" style="text;html=1;align=center;verticalAlign=middle;resizable=0;points=[];autosize=1;strokeColor=none;fillColor=none;fontSize=16;fontFamily=Architects Daughter;fontSource=https%3A%2F%2Ffonts.googleapis.com%2Fcss%3Ffamily%3DArchitects%2BDaughter;" vertex="1" parent="1">
          <mxGeometry x="800" y="275" width="50" height="30" as="geometry" />
        </mxCell>
        <mxCell id="tsXjxQX4fWr17V4q_Agi-31" value="&lt;font face=&quot;Helvetica&quot;&gt;1:1&lt;/font&gt;" style="text;html=1;align=center;verticalAlign=middle;resizable=0;points=[];autosize=1;strokeColor=none;fillColor=none;fontSize=16;fontFamily=Architects Daughter;fontSource=https%3A%2F%2Ffonts.googleapis.com%2Fcss%3Ffamily%3DArchitects%2BDaughter;" vertex="1" parent="1">
          <mxGeometry x="920" y="280" width="50" height="30" as="geometry" />
        </mxCell>
        <mxCell id="tsXjxQX4fWr17V4q_Agi-32" value="&lt;font face=&quot;Helvetica&quot;&gt;1:1&lt;/font&gt;" style="text;html=1;align=center;verticalAlign=middle;resizable=0;points=[];autosize=1;strokeColor=none;fillColor=none;fontSize=16;fontFamily=Architects Daughter;fontSource=https%3A%2F%2Ffonts.googleapis.com%2Fcss%3Ffamily%3DArchitects%2BDaughter;" vertex="1" parent="1">
          <mxGeometry x="850" y="230" width="50" height="30" as="geometry" />
        </mxCell>
        <mxCell id="tsXjxQX4fWr17V4q_Agi-33" value="&lt;font face=&quot;Helvetica&quot;&gt;1:N&lt;/font&gt;" style="text;html=1;align=center;verticalAlign=middle;resizable=0;points=[];autosize=1;strokeColor=none;fillColor=none;fontSize=16;fontFamily=Architects Daughter;fontSource=https%3A%2F%2Ffonts.googleapis.com%2Fcss%3Ffamily%3DArchitects%2BDaughter;" vertex="1" parent="1">
          <mxGeometry x="790" y="155" width="50" height="30" as="geometry" />
        </mxCell>
        <mxCell id="tsXjxQX4fWr17V4q_Agi-35" style="edgeStyle=none;curved=1;rounded=0;sketch=1;hachureGap=4;jiggle=2;curveFitting=1;orthogonalLoop=1;jettySize=auto;html=1;fontFamily=Architects Daughter;fontSource=https%3A%2F%2Ffonts.googleapis.com%2Fcss%3Ffamily%3DArchitects%2BDaughter;fontSize=12;startSize=8;endSize=8;" edge="1" parent="1" source="tsXjxQX4fWr17V4q_Agi-34" target="tbTNVgrCfU-SqD0Iauph-22">
          <mxGeometry relative="1" as="geometry" />
        </mxCell>
        <mxCell id="tsXjxQX4fWr17V4q_Agi-34" value="&lt;font face=&quot;Helvetica&quot;&gt;Calle&lt;/font&gt;" style="ellipse;whiteSpace=wrap;html=1;hachureGap=4;fontFamily=Architects Daughter;fontSource=https%3A%2F%2Ffonts.googleapis.com%2Fcss%3Ffamily%3DArchitects%2BDaughter;" vertex="1" parent="1">
          <mxGeometry x="-70" y="-80" width="80" height="40" as="geometry" />
        </mxCell>
        <mxCell id="tsXjxQX4fWr17V4q_Agi-37" style="edgeStyle=none;curved=1;rounded=0;sketch=1;hachureGap=4;jiggle=2;curveFitting=1;orthogonalLoop=1;jettySize=auto;html=1;fontFamily=Architects Daughter;fontSource=https%3A%2F%2Ffonts.googleapis.com%2Fcss%3Ffamily%3DArchitects%2BDaughter;fontSize=12;startSize=8;endSize=8;" edge="1" parent="1" source="tsXjxQX4fWr17V4q_Agi-36" target="tbTNVgrCfU-SqD0Iauph-22">
          <mxGeometry relative="1" as="geometry" />
        </mxCell>
        <mxCell id="tsXjxQX4fWr17V4q_Agi-36" value="&lt;font face=&quot;Helvetica&quot;&gt;zona&lt;/font&gt;" style="ellipse;whiteSpace=wrap;html=1;hachureGap=4;fontFamily=Architects Daughter;fontSource=https%3A%2F%2Ffonts.googleapis.com%2Fcss%3Ffamily%3DArchitects%2BDaughter;" vertex="1" parent="1">
          <mxGeometry x="-70" y="-30" width="80" height="40" as="geometry" />
        </mxCell>
        <mxCell id="tsXjxQX4fWr17V4q_Agi-39" style="edgeStyle=none;curved=1;rounded=0;sketch=1;hachureGap=4;jiggle=2;curveFitting=1;orthogonalLoop=1;jettySize=auto;html=1;fontFamily=Architects Daughter;fontSource=https%3A%2F%2Ffonts.googleapis.com%2Fcss%3Ffamily%3DArchitects%2BDaughter;fontSize=12;startSize=8;endSize=8;" edge="1" parent="1" source="tsXjxQX4fWr17V4q_Agi-38" target="tbTNVgrCfU-SqD0Iauph-22">
          <mxGeometry relative="1" as="geometry" />
        </mxCell>
        <mxCell id="tsXjxQX4fWr17V4q_Agi-38" value="&lt;font face=&quot;Helvetica&quot;&gt;NumPuerta&lt;/font&gt;" style="ellipse;whiteSpace=wrap;html=1;hachureGap=4;fontFamily=Architects Daughter;fontSource=https%3A%2F%2Ffonts.googleapis.com%2Fcss%3Ffamily%3DArchitects%2BDaughter;" vertex="1" parent="1">
          <mxGeometry x="-70" y="20" width="80" height="40" as="geometry" />
        </mxCell>
      </root>
    </mxGraphModel>
  </diagram>
</mxfile>
